<svg width="38" height="38" viewBox="0 0 38 38" fill="none" xmlns="http://www.w3.org/2000/svg">
<g id="Logo">
<g id="Group 3">
<mask id="mask0_4205_92" style="mask-type:luminance" maskUnits="userSpaceOnUse" x="0" y="0" width="38" height="38">
<path id="Clip 2" fill-rule="evenodd" clip-rule="evenodd" d="M0 0H37.541V37.5417H0V0Z" fill="white"/>
</mask>
<g mask="url(#mask0_4205_92)">
<path id="Fill 1" fill-rule="evenodd" clip-rule="evenodd" d="M32.1741 23.7054C32.1741 26.0514 30.344 27.6741 28.0252 27.6741C25.6801 27.6741 23.8509 26.0514 23.8509 23.7054V13.8097C23.8509 11.4654 25.6801 9.86741 28.0252 9.86741C30.344 9.86741 32.1741 11.4654 32.1741 13.8097V23.7054ZM22.5155 27.3383H20.6081L20.2741 26.1798C19.8091 27.1326 18.8299 27.6741 17.8516 27.6741C15.6093 27.6741 14.1915 26.0514 14.1915 23.8083V13.7069C14.1915 11.672 15.8932 9.86741 18.3403 9.86741C20.7883 9.86741 22.3863 11.672 22.3863 13.7069V16.5416H19.2685V13.6559C19.2685 13.1663 18.9591 12.8569 18.3922 12.8569C17.8516 12.8569 17.5413 13.1663 17.5413 13.6559V23.9366C17.5413 24.4271 17.8771 24.7866 18.4177 24.7866C18.9846 24.7866 19.3195 24.4271 19.3195 23.9366V21.1291H18.4432V18.8086H22.5155V27.3383ZM13.0814 13.0889H9.53688V17.1859H11.9594V19.8651H9.53688V24.3242H13.0814V27.3383H6.23803V10.1768H13.0814V13.0889ZM18.7704 -0.000244141C8.40298 -0.000244141 -0.00012207 8.40456 -0.00012207 18.7712C-0.00012207 29.1378 8.40298 37.5417 18.7704 37.5417C29.1379 37.5417 37.541 29.1378 37.541 18.7712C37.541 8.40456 29.1379 -0.000244141 18.7704 -0.000244141V-0.000244141Z" fill="#12110F"/>
</g>
</g>
<path id="Fill 4" fill-rule="evenodd" clip-rule="evenodd" d="M28.025 12.8572C27.5872 12.8572 27.2268 13.1402 27.2268 13.6043V23.9114C27.2268 24.3755 27.5872 24.6586 28.025 24.6586C28.4636 24.6586 28.7985 24.3755 28.7985 23.9114V13.6043C28.7985 13.1402 28.4636 12.8572 28.025 12.8572" fill="#12110F"/>
</g>
</svg>
